<svg version="1.1" id="Layer_1" xmlns="http://www.w3.org/2000/svg" xmlns:xlink="http://www.w3.org/1999/xlink" x="0px" y="0px"
	 width="100%" viewBox="0 0 500 500" enable-background="new 0 0 500 500" xml:space="preserve">
<path fill="#FFFFFF" opacity="1.000000" stroke="none" 
	d="
M269.000000,501.000000 
	C179.333359,501.000000 90.166710,501.000000 1.000048,501.000000 
	C1.000032,334.333405 1.000032,167.666794 1.000016,1.000137 
	C167.666565,1.000092 334.333130,1.000092 500.999756,1.000046 
	C500.999847,167.666519 500.999847,334.333038 500.999939,500.999786 
	C423.833344,501.000000 346.666656,501.000000 269.000000,501.000000 
M386.708710,226.705460 
	C386.750275,225.804321 386.791840,224.903168 386.969818,223.116425 
	C386.648773,220.024399 386.589813,216.878159 385.963348,213.849304 
	C382.356354,196.410233 372.659821,183.000351 357.741760,173.662308 
	C354.961456,171.921936 349.712646,171.856628 346.706909,173.306580 
	C342.755280,175.212845 343.634094,180.076187 344.518921,184.048340 
	C344.552704,184.200043 344.752045,184.317322 344.779114,184.467758 
	C346.192566,192.316696 348.628662,200.151794 348.748260,208.021927 
	C348.911499,218.766632 344.444275,228.199142 335.095276,234.263794 
	C325.860260,240.254547 315.731201,241.695114 304.660645,240.176163 
	C289.064514,238.036240 279.041473,229.637726 273.007629,215.615250 
	C267.413391,202.614365 266.386658,188.960327 267.708710,174.705460 
	C267.750275,173.804321 267.791840,172.903168 267.970093,171.271118 
	C268.016602,170.529633 268.063141,169.788132 268.708679,168.705460 
	C268.750244,167.804321 268.791809,166.903168 268.972809,165.357391 
	C269.018433,164.920441 269.064087,164.483505 269.752777,163.633530 
	C269.949463,162.504517 269.995819,161.323547 270.365295,160.254242 
	C276.314117,143.037842 284.585205,127.434570 298.925201,115.401337 
	C309.951508,106.148727 322.422363,100.457001 336.480530,99.163124 
	C355.279694,97.432922 373.500183,100.411537 390.247681,109.726082 
	C396.623718,113.272270 402.729431,117.304497 409.253571,121.742546 
	C410.874329,122.954781 412.828400,123.898079 414.059875,125.424385 
	C420.438385,133.329895 427.257294,140.978745 432.766327,149.467529 
	C446.113556,170.034225 450.536560,193.308426 450.820587,217.370148 
	C450.924286,226.156723 449.110046,234.979935 447.993256,243.763855 
	C445.958557,259.767487 440.920624,274.900665 434.149536,289.463989 
	C422.538208,314.437775 406.076172,335.655548 385.090759,353.553772 
	C373.046448,363.826294 360.243622,373.037415 346.059052,379.735535 
	C331.514832,386.603455 316.345428,392.397308 301.007507,397.269379 
	C283.016510,402.984222 264.307465,405.827515 245.358887,405.924927 
	C232.872192,405.989136 220.348206,405.785553 207.903763,404.858307 
	C197.981049,404.118958 188.026581,402.680786 178.308411,400.542816 
	C153.930908,395.179840 130.975708,386.022461 109.200706,373.729187 
	C91.306480,363.626862 74.524643,351.955139 59.141712,338.444427 
	C45.697056,326.636108 33.119961,313.843750 20.045628,301.607880 
	C15.904951,297.732727 11.429700,294.209778 7.020842,290.632538 
	C6.400771,290.129425 5.284296,290.238159 3.328874,289.853333 
	C4.619696,292.037689 5.265612,293.482819 6.216988,294.686523 
	C16.483150,307.675568 26.406582,320.962738 37.193958,333.505920 
	C51.831367,350.525848 66.880486,367.212402 82.254539,383.570618 
	C92.140518,394.089447 102.916603,403.772888 113.338135,413.784576 
	C113.989212,414.410065 115.027550,414.632416 116.179314,415.662842 
	C121.203934,418.994293 125.864258,423.201263 131.328934,425.475067 
	C142.731323,430.219543 154.463898,434.237549 166.232391,438.020264 
	C186.897751,444.662720 208.305084,448.083557 229.866425,448.706299 
	C246.447205,449.185181 263.126831,447.284790 279.722046,445.942322 
	C298.012451,444.462646 315.765625,439.947906 333.140137,434.303833 
	C358.561371,426.045807 382.614746,414.921326 404.555420,399.305084 
	C417.652313,389.983398 429.845398,379.726746 439.939209,367.343597 
	C455.915131,347.744263 469.113556,326.260559 478.464417,302.721405 
	C482.517731,292.517975 484.765533,281.597351 487.972748,270.357727 
	C488.018372,269.920685 488.063995,269.483673 488.708710,268.705475 
	C488.750275,267.804321 488.791840,266.903137 488.970123,265.271088 
	C489.016632,264.529602 489.063141,263.788116 489.708679,262.705475 
	C489.750244,261.804321 489.791809,260.903137 489.970123,259.271088 
	C490.016632,258.529602 490.063141,257.788116 490.708740,256.705414 
	C490.750275,255.804291 490.791840,254.903152 490.969727,253.184616 
	C491.016357,251.805298 491.063019,250.425964 491.708710,248.705460 
	C491.750275,247.804321 491.791840,246.903168 491.969940,245.105103 
	C492.016510,242.085617 492.063080,239.066132 492.708710,235.705460 
	C492.750275,234.804321 492.791840,233.903168 492.970734,232.073517 
	C493.532043,214.890747 492.511627,197.791687 488.916626,180.982132 
	C484.598938,160.793365 477.511353,141.637955 466.575195,123.947876 
	C458.032806,110.129845 446.928986,98.836037 434.334290,88.789246 
	C421.534790,78.579094 407.419495,71.018898 391.507324,67.007187 
	C384.317230,65.194443 377.060120,63.647331 369.873260,61.481853 
	C369.686554,61.115471 369.403015,61.010372 368.091431,61.029316 
	C350.260590,60.595478 332.553558,61.022442 314.970917,64.897072 
	C286.975281,71.066368 263.122711,83.777954 244.995712,106.457352 
	C228.105026,127.589989 220.484985,152.147263 219.279007,178.643448 
	C218.862946,187.784851 221.007782,197.230179 223.141983,206.262787 
	C228.187683,227.617676 237.941010,246.472244 255.178452,261.661835 
	C277.171417,281.158295 302.983887,286.092499 331.206055,281.343597 
	C347.792969,278.552582 361.758057,270.849396 372.620697,257.863861 
	C379.423035,249.732162 384.186249,240.596695 385.970093,229.271240 
	C386.016602,228.529709 386.063110,227.788177 386.708710,226.705460 
z"/>
<path fill="#789A53" opacity="1.000000" stroke="none" 
	d="
M369.833435,61.979706 
	C377.060120,63.647331 384.317230,65.194443 391.507324,67.007187 
	C407.419495,71.018898 421.534790,78.579094 434.334290,88.789246 
	C446.928986,98.836037 458.032806,110.129845 466.575195,123.947876 
	C477.511353,141.637955 484.598938,160.793365 488.916626,180.982132 
	C492.511627,197.791687 493.532043,214.890747 492.584595,232.595413 
	C492.168823,234.093750 492.139221,235.070206 492.109650,236.046646 
	C492.063080,239.066132 492.016510,242.085617 491.584167,245.611206 
	C491.168823,247.093750 491.139221,248.070206 491.109650,249.046646 
	C491.063019,250.425964 491.016357,251.805298 490.584076,253.650970 
	C490.168823,255.093750 490.139221,256.070190 490.109650,257.046631 
	C490.063141,257.788116 490.016632,258.529602 489.584290,259.694214 
	C489.168823,261.093781 489.139252,262.070190 489.109650,263.046631 
	C489.063141,263.788116 489.016632,264.529602 488.584259,265.694214 
	C488.168823,267.093781 488.139221,268.070190 488.109619,269.046631 
	C488.063995,269.483673 488.018372,269.920685 487.550018,270.763611 
	C485.371796,276.798218 483.712097,282.458984 481.843567,288.049927 
	C475.071472,308.313324 465.404297,327.155121 452.916565,344.439880 
	C445.607208,354.557007 438.175507,364.760071 429.526672,373.692719 
	C417.664612,385.943939 404.315521,396.730896 389.324402,405.084320 
	C378.048889,411.367310 366.624359,417.496948 354.820862,422.681000 
	C345.979095,426.564270 336.502533,429.090942 327.180054,431.775085 
	C293.212006,441.555206 258.697388,447.469421 223.231918,443.878906 
	C207.644943,442.300873 192.043839,440.048767 176.730713,436.782715 
	C157.095535,432.594818 138.120499,426.104309 120.664291,415.785889 
	C119.375305,415.023987 117.492470,415.266693 115.885712,415.042358 
	C115.027550,414.632416 113.989212,414.410065 113.338135,413.784576 
	C102.916603,403.772888 92.140518,394.089447 82.254539,383.570618 
	C66.880486,367.212402 51.831367,350.525848 37.193958,333.505920 
	C26.406582,320.962738 16.483150,307.675568 6.216988,294.686523 
	C5.265612,293.482819 4.619696,292.037689 3.328874,289.853333 
	C5.284296,290.238159 6.400771,290.129425 7.020842,290.632538 
	C11.429700,294.209778 15.904951,297.732727 20.045628,301.607880 
	C33.119961,313.843750 45.697056,326.636108 59.141712,338.444427 
	C74.524643,351.955139 91.306480,363.626862 109.200706,373.729187 
	C130.975708,386.022461 153.930908,395.179840 178.308411,400.542816 
	C188.026581,402.680786 197.981049,404.118958 207.903763,404.858307 
	C220.348206,405.785553 232.872192,405.989136 245.358887,405.924927 
	C264.307465,405.827515 283.016510,402.984222 301.007507,397.269379 
	C316.345428,392.397308 331.514832,386.603455 346.059052,379.735535 
	C360.243622,373.037415 373.046448,363.826294 385.090759,353.553772 
	C406.076172,335.655548 422.538208,314.437775 434.149536,289.463989 
	C440.920624,274.900665 445.958557,259.767487 447.993256,243.763855 
	C449.110046,234.979935 450.924286,226.156723 450.820587,217.370148 
	C450.536560,193.308426 446.113556,170.034225 432.766327,149.467529 
	C427.257294,140.978745 420.438385,133.329895 414.059875,125.424385 
	C412.828400,123.898079 410.874329,122.954781 409.116455,121.022057 
	C408.751801,119.365837 408.839935,118.001205 408.245636,117.563828 
	C404.318604,114.673729 400.429779,111.652267 396.188965,109.280884 
	C368.884613,94.012886 341.155151,88.038437 311.371246,103.394531 
	C301.083252,108.698845 292.315552,115.224251 285.663361,124.231987 
	C278.154510,134.399719 272.787720,145.899170 269.212860,158.099091 
	C268.675171,159.934097 269.119629,162.056885 269.109741,164.046555 
	C269.064087,164.483505 269.018433,164.920441 268.585632,165.737350 
	C268.168823,167.093750 268.139221,168.070206 268.109650,169.046646 
	C268.063141,169.788132 268.016602,170.529633 267.584259,171.694214 
	C267.168823,173.093750 267.139252,174.070206 267.109650,175.046646 
	C266.386658,188.960327 267.413391,202.614365 273.007629,215.615250 
	C279.041473,229.637726 289.064514,238.036240 304.660645,240.176163 
	C315.731201,241.695114 325.860260,240.254547 335.095276,234.263794 
	C344.444275,228.199142 348.911499,218.766632 348.748260,208.021927 
	C348.628662,200.151794 346.192566,192.316696 344.779114,184.467758 
	C344.752045,184.317322 344.552704,184.200043 344.518921,184.048340 
	C343.634094,180.076187 342.755280,175.212845 346.706909,173.306580 
	C349.712646,171.856628 354.961456,171.921936 357.741760,173.662308 
	C372.659821,183.000351 382.356354,196.410233 385.963348,213.849304 
	C386.589813,216.878159 386.648773,220.024399 386.584106,223.616867 
	C386.168823,225.093750 386.139252,226.070206 386.109650,227.046646 
	C386.063110,227.788177 386.016602,228.529709 385.557922,229.710388 
	C384.659607,230.963257 384.026001,231.723557 383.708954,232.598541 
	C376.020203,253.817535 362.086090,268.665588 339.968140,274.787598 
	C332.995575,276.717560 325.786713,278.414215 318.603729,278.844696 
	C298.944916,280.022705 280.517853,275.635956 263.759399,264.874878 
	C261.084229,263.157074 257.857452,262.298279 254.885712,261.042358 
	C237.941010,246.472244 228.187683,227.617676 223.141983,206.262787 
	C221.007782,197.230179 218.862946,187.784851 219.279007,178.643448 
	C220.484985,152.147263 228.105026,127.589989 244.995712,106.457352 
	C263.122711,83.777954 286.975281,71.066368 314.970917,64.897072 
	C332.553558,61.022442 350.260590,60.595478 368.648468,61.272858 
	C369.367981,61.734314 369.577301,61.888748 369.833435,61.979706 
z"/>
<path fill="#789A53" opacity="1.000000" stroke="none" 
	d="
M116.032516,415.352600 
	C117.492470,415.266693 119.375305,415.023987 120.664291,415.785889 
	C138.120499,426.104309 157.095535,432.594818 176.730713,436.782715 
	C192.043839,440.048767 207.644943,442.300873 223.231918,443.878906 
	C258.697388,447.469421 293.212006,441.555206 327.180054,431.775085 
	C336.502533,429.090942 345.979095,426.564270 354.820862,422.681000 
	C366.624359,417.496948 378.048889,411.367310 389.324402,405.084320 
	C404.315521,396.730896 417.664612,385.943939 429.526672,373.692719 
	C438.175507,364.760071 445.607208,354.557007 452.916565,344.439880 
	C465.404297,327.155121 475.071472,308.313324 481.843567,288.049927 
	C483.712097,282.458984 485.371796,276.798218 487.480347,271.085999 
	C484.765533,281.597351 482.517731,292.517975 478.464417,302.721405 
	C469.113556,326.260559 455.915131,347.744263 439.939209,367.343597 
	C429.845398,379.726746 417.652313,389.983398 404.555420,399.305084 
	C382.614746,414.921326 358.561371,426.045807 333.140137,434.303833 
	C315.765625,439.947906 298.012451,444.462646 279.722046,445.942322 
	C263.126831,447.284790 246.447205,449.185181 229.866425,448.706299 
	C208.305084,448.083557 186.897751,444.662720 166.232391,438.020264 
	C154.463898,434.237549 142.731323,430.219543 131.328934,425.475067 
	C125.864258,423.201263 121.203934,418.994293 116.032516,415.352600 
z"/>
<path fill="#789A53" opacity="1.000000" stroke="none" 
	d="
M269.431274,163.840042 
	C269.119629,162.056885 268.675171,159.934097 269.212860,158.099091 
	C272.787720,145.899170 278.154510,134.399719 285.663361,124.231987 
	C292.315552,115.224251 301.083252,108.698845 311.371246,103.394531 
	C341.155151,88.038437 368.884613,94.012886 396.188965,109.280884 
	C400.429779,111.652267 404.318604,114.673729 408.245636,117.563828 
	C408.839935,118.001205 408.751801,119.365837 408.968842,120.708389 
	C402.729431,117.304497 396.623718,113.272270 390.247681,109.726082 
	C373.500183,100.411537 355.279694,97.432922 336.480530,99.163124 
	C322.422363,100.457001 309.951508,106.148727 298.925201,115.401337 
	C284.585205,127.434570 276.314117,143.037842 270.365295,160.254242 
	C269.995819,161.323547 269.949463,162.504517 269.431274,163.840042 
z"/>
<path fill="#789A53" opacity="1.000000" stroke="none" 
	d="
M255.032074,261.352112 
	C257.857452,262.298279 261.084229,263.157074 263.759399,264.874878 
	C280.517853,275.635956 298.944916,280.022705 318.603729,278.844696 
	C325.786713,278.414215 332.995575,276.717560 339.968140,274.787598 
	C362.086090,268.665588 376.020203,253.817535 383.708954,232.598541 
	C384.026001,231.723557 384.659607,230.963257 385.489563,230.075867 
	C384.186249,240.596695 379.423035,249.732162 372.620697,257.863861 
	C361.758057,270.849396 347.792969,278.552582 331.206055,281.343597 
	C302.983887,286.092499 277.171417,281.158295 255.032074,261.352112 
z"/>
<path fill="#789A53" opacity="1.000000" stroke="none" 
	d="
M268.409180,168.876053 
	C268.139221,168.070206 268.168823,167.093750 268.515900,166.059662 
	C268.791809,166.903168 268.750244,167.804321 268.409180,168.876053 
z"/>
<path fill="#789A53" opacity="1.000000" stroke="none" 
	d="
M267.409180,174.876053 
	C267.139252,174.070206 267.168823,173.093750 267.515930,172.059662 
	C267.791840,172.903168 267.750275,173.804321 267.409180,174.876053 
z"/>
<path fill="#789A53" opacity="1.000000" stroke="none" 
	d="
M386.409180,226.876053 
	C386.139252,226.070206 386.168823,225.093750 386.515930,224.059662 
	C386.791840,224.903168 386.750275,225.804321 386.409180,226.876053 
z"/>
<path fill="#789A53" opacity="1.000000" stroke="none" 
	d="
M492.409180,235.876053 
	C492.139221,235.070206 492.168823,234.093750 492.515930,233.059662 
	C492.791840,233.903168 492.750275,234.804321 492.409180,235.876053 
z"/>
<path fill="#789A53" opacity="1.000000" stroke="none" 
	d="
M491.409180,248.876053 
	C491.139221,248.070206 491.168823,247.093750 491.515930,246.059662 
	C491.791840,246.903168 491.750275,247.804321 491.409180,248.876053 
z"/>
<path fill="#789A53" opacity="1.000000" stroke="none" 
	d="
M490.409180,256.876038 
	C490.139221,256.070190 490.168823,255.093750 490.515930,254.059662 
	C490.791840,254.903152 490.750275,255.804291 490.409180,256.876038 
z"/>
<path fill="#789A53" opacity="1.000000" stroke="none" 
	d="
M489.409180,262.876038 
	C489.139252,262.070190 489.168823,261.093781 489.515900,260.059662 
	C489.791809,260.903137 489.750244,261.804321 489.409180,262.876038 
z"/>
<path fill="#789A53" opacity="1.000000" stroke="none" 
	d="
M488.409180,268.876038 
	C488.139221,268.070190 488.168823,267.093781 488.515900,266.059662 
	C488.791840,266.903137 488.750275,267.804321 488.409180,268.876038 
z"/>
<path fill="#789A53" opacity="1.000000" stroke="none" 
	d="
M369.853333,61.730782 
	C369.577301,61.888748 369.367981,61.734314 369.114044,61.341480 
	C369.403015,61.010372 369.686554,61.115471 369.853333,61.730782 
z"/>
</svg>