<svg width="762" height="24" viewBox="0 0 762 24" fill="none" xmlns="http://www.w3.org/2000/svg">
<path d="M26.6181 20.402C17.4922 22.4348 5.76542 21.1402 1 20.402C5.50956 19.2094 12.8016 17.8465 20.0937 15.1206C26.6093 12.685 37.4603 6.3468 45.7118 3.87649C52.716 1.77959 84.4748 3.87649 71.8096 5.66531C56.0256 7.89465 53.3876 14.4392 26.6181 20.402Z" fill="#2596B5" stroke="#2596B5" stroke-width="3"/>
<path d="M711.618 20.402C702.492 22.4348 690.765 21.1402 686 20.402C690.51 19.2094 697.802 17.8465 705.094 15.1206C711.609 12.685 722.46 6.3468 730.712 3.87649C737.716 1.77959 769.475 3.87649 756.81 5.66531C741.026 7.89465 738.388 14.4392 711.618 20.402Z" fill="#2596B5" stroke="#2596B5" stroke-width="3"/>
<path d="M366.006 23.3695C356.392 23.8583 342.429 20.135 344.144 19.5115C367.292 16.9395 383.581 5.15115 392.583 3.22206C398.585 1.936 418.747 0.098712 417.446 1.50741C412.302 7.08001 391.297 22.0835 366.006 23.3695Z" fill="#2596B5" stroke="#2596B5"/>
</svg>
